<svg width="174" height="36" viewBox="0 0 174 36" fill="none" xmlns="http://www.w3.org/2000/svg">
<path d="M4.48828 18.4531L11.8242 21.418V23.7148L2.23828 19.2734V17.5625L11.8242 13.1328V15.4297L4.48828 18.4531Z" fill="#081357"/>
<path d="M63.7637 18.0581C63.7637 19.4334 63.5288 20.4554 63.0591 21.124C62.5894 21.7926 61.8551 22.127 60.8564 22.127C59.8704 22.127 59.1405 21.8011 58.6665 21.1494C58.1925 20.4935 57.9471 19.516 57.9302 18.2168V16.6489C57.9302 15.2905 58.165 14.2812 58.6348 13.6211C59.1045 12.9609 59.8408 12.6309 60.8438 12.6309C61.8382 12.6309 62.5703 12.9504 63.04 13.5894C63.5098 14.2241 63.751 15.2059 63.7637 16.5347V18.0581ZM62.5894 16.4521C62.5894 15.4577 62.4497 14.734 62.1704 14.2812C61.8911 13.8242 61.4489 13.5957 60.8438 13.5957C60.2428 13.5957 59.8049 13.8221 59.5298 14.2749C59.2547 14.7277 59.113 15.4238 59.1045 16.3633V18.2422C59.1045 19.2409 59.2484 19.9793 59.5361 20.4575C59.8281 20.9315 60.2682 21.1685 60.8564 21.1685C61.4362 21.1685 61.8657 20.9442 62.145 20.4956C62.4285 20.047 62.5767 19.3403 62.5894 18.3755V16.4521ZM69.1274 22H67.9468V14.1733L65.5791 15.043V13.9766L68.9434 12.7134H69.1274V22Z" fill="#081357"/>
<path d="M90.1484 17.5498H81.0156V16.5176H90.1484V17.5498Z" fill="#081357"/>
<path d="M106.707 17.7549C106.707 19.236 106.454 20.3366 105.948 21.0566C105.442 21.7767 104.652 22.1367 103.576 22.1367C102.514 22.1367 101.728 21.7858 101.218 21.084C100.707 20.3776 100.443 19.3249 100.425 17.9258V16.2373C100.425 14.7744 100.678 13.6875 101.184 12.9766C101.689 12.2656 102.482 11.9102 103.562 11.9102C104.633 11.9102 105.422 12.2542 105.928 12.9424C106.434 13.626 106.693 14.6833 106.707 16.1143V17.7549ZM105.442 16.0254C105.442 14.9544 105.292 14.1751 104.991 13.6875C104.69 13.1953 104.214 12.9492 103.562 12.9492C102.915 12.9492 102.444 13.193 102.147 13.6807C101.851 14.1683 101.699 14.918 101.689 15.9297V17.9531C101.689 19.0286 101.844 19.8239 102.154 20.3389C102.469 20.8493 102.943 21.1045 103.576 21.1045C104.201 21.1045 104.663 20.863 104.964 20.3799C105.269 19.8968 105.429 19.1357 105.442 18.0967V16.0254ZM114.363 14.6445C114.363 15.1413 114.231 15.5833 113.967 15.9707C113.707 16.3581 113.354 16.6611 112.907 16.8799C113.427 17.1032 113.837 17.429 114.138 17.8574C114.443 18.2858 114.596 18.7712 114.596 19.3135C114.596 20.1748 114.304 20.8607 113.721 21.3711C113.142 21.8815 112.379 22.1367 111.431 22.1367C110.474 22.1367 109.706 21.8815 109.127 21.3711C108.553 20.8561 108.266 20.1702 108.266 19.3135C108.266 18.7757 108.411 18.2904 108.703 17.8574C108.999 17.4245 109.407 17.0964 109.927 16.873C109.485 16.6543 109.136 16.3512 108.881 15.9639C108.626 15.5765 108.498 15.1367 108.498 14.6445C108.498 13.806 108.767 13.1406 109.305 12.6484C109.842 12.1562 110.551 11.9102 111.431 11.9102C112.306 11.9102 113.012 12.1562 113.55 12.6484C114.092 13.1406 114.363 13.806 114.363 14.6445ZM113.331 19.2861C113.331 18.7301 113.153 18.2767 112.798 17.9258C112.447 17.5749 111.987 17.3994 111.417 17.3994C110.847 17.3994 110.389 17.5726 110.043 17.9189C109.701 18.2653 109.53 18.721 109.53 19.2861C109.53 19.8512 109.697 20.2956 110.029 20.6191C110.367 20.9427 110.834 21.1045 111.431 21.1045C112.023 21.1045 112.488 20.9427 112.825 20.6191C113.162 20.291 113.331 19.8467 113.331 19.2861ZM111.431 12.9492C110.934 12.9492 110.531 13.1042 110.221 13.4141C109.915 13.7194 109.763 14.1364 109.763 14.665C109.763 15.1709 109.913 15.5811 110.214 15.8955C110.519 16.2054 110.925 16.3604 111.431 16.3604C111.937 16.3604 112.34 16.2054 112.641 15.8955C112.946 15.5811 113.099 15.1709 113.099 14.665C113.099 14.1592 112.941 13.7467 112.627 13.4277C112.312 13.1087 111.914 12.9492 111.431 12.9492Z" fill="#081357"/>
<path d="M169.547 18.3828L161.801 15.3477V13.1211L171.809 17.5508V19.2617L161.801 23.7031V21.4531L169.547 18.3828Z" fill="#081357"/>
</svg>
