<svg width="108" height="18" viewBox="0 0 108 18" fill="none" xmlns="http://www.w3.org/2000/svg">
<path fill-rule="evenodd" clip-rule="evenodd" d="M106.302 5.99127C106.487 5.99594 106.615 5.95312 106.615 5.75149C106.615 5.52807 106.378 5.5452 106.221 5.5452H105.853V5.99127H106.302ZM106.88 6.93129H106.487L106.122 6.24H105.853V6.93129H105.51V5.2918H106.297C106.727 5.2918 106.932 5.40779 106.932 5.79353C106.932 6.09442 106.774 6.21898 106.487 6.24L106.88 6.93129ZM107.244 6.1026C107.244 5.42881 106.777 4.94887 106.131 4.94887C105.471 4.94887 105.017 5.42881 105.017 6.1026C105.017 6.78494 105.471 7.26137 106.131 7.26137C106.777 7.26137 107.244 6.78494 107.244 6.1026ZM104.619 6.1026C104.619 5.27 105.292 4.59271 106.131 4.59271C106.961 4.59271 107.642 5.27 107.642 6.1026C107.642 6.94452 106.961 7.6222 106.131 7.6222C105.292 7.6222 104.619 6.94452 104.619 6.1026Z" fill="#C8F0EF"/>
<path fill-rule="evenodd" clip-rule="evenodd" d="M9.66634 3.09347H6.17943V14.266H3.48692V3.09347H0V0.810608H9.66634V3.09347Z" fill="#C8F0EF"/>
<path fill-rule="evenodd" clip-rule="evenodd" d="M13.2391 5.58418C14.0506 4.90963 15.0513 4.37288 16.122 4.37288C17.1747 4.37288 18.659 5.01317 18.659 7.40034V14.2657H16.1045V8.43804C16.1045 7.65957 16.1561 6.43154 15.0513 6.43154C14.3093 6.43154 13.7223 6.96751 13.2391 7.48675V14.2657H10.6845V0.810608H13.2391V5.58418Z" fill="#C8F0EF"/>
<path fill-rule="evenodd" clip-rule="evenodd" d="M25.581 9.42462C25.581 8.21373 25.3393 6.25974 23.9587 6.25974C22.5777 6.25974 22.3361 8.21373 22.3361 9.42462C22.3361 10.6352 22.5777 12.5895 23.9587 12.5895C25.3393 12.5895 25.581 10.6352 25.581 9.42462ZM19.7119 9.42462C19.7119 6.84749 21.1275 4.37427 23.9587 4.37427C26.7895 4.37427 28.2047 6.84749 28.2047 9.42462C28.2047 11.9843 26.772 14.4747 23.9587 14.4747C21.145 14.4747 19.7119 11.9843 19.7119 9.42462Z" fill="#C8F0EF"/>
<path fill-rule="evenodd" clip-rule="evenodd" d="M34.7469 13.2619C33.9357 13.9364 32.9343 14.4723 31.8644 14.4723C30.8112 14.4723 29.3269 13.8325 29.3269 11.4457V4.57965H31.8815V10.408C31.8815 11.1865 31.8298 12.4145 32.9343 12.4145C33.6766 12.4145 34.2636 11.8781 34.7469 11.3593V4.57965H37.3014V14.2649H34.7469V13.2619Z" fill="#C8F0EF"/>
<path fill-rule="evenodd" clip-rule="evenodd" d="M42.4286 9.4597C43.4988 9.4597 43.8095 8.5777 43.8095 7.66103C43.8095 6.77902 43.3954 6.0348 42.4286 6.0348C41.3587 6.0348 41.0305 6.93433 41.0305 7.85137C41.0305 8.73336 41.4446 9.4597 42.4286 9.4597ZM40.6676 14.2851C40.426 14.4407 40.271 14.5789 40.271 14.8907C40.271 15.7898 42.0835 15.8416 42.6877 15.8416C43.1192 15.8416 45.363 15.7898 45.363 15.0113C45.363 14.5096 45.0177 14.5618 43.4988 14.475L40.6676 14.2851ZM41.4791 11.0851C41.1858 11.0851 40.7539 11.2408 40.7539 11.6908C40.7539 12.9531 47.4519 10.757 47.4519 14.5447C47.4519 15.9802 46.485 17.5021 42.6531 17.5021C39.3215 17.5021 38.1821 16.3258 38.1821 15.0635C38.1821 14.3193 38.6483 13.939 39.2353 13.593C38.8208 13.2816 38.4754 12.9184 38.4754 12.3653C38.4754 11.4136 38.9933 10.9123 39.7356 10.4281C39.0278 9.73647 38.5271 8.87153 38.5271 7.76456C38.5271 5.61988 40.3398 4.37432 42.4286 4.37432C43.2747 4.37432 44.0858 4.61682 44.8106 5.04887C45.3281 4.56504 45.7946 4.25366 46.5542 4.25366C46.7957 4.25366 47.0545 4.27079 47.2965 4.32255V6.1216C47.0374 6.01767 46.7611 5.91375 46.485 5.91375C46.2087 5.91375 46.0363 6.00054 45.7946 6.1216C46.0704 6.64045 46.2954 7.21107 46.3125 7.76456C46.3125 9.90927 44.5173 11.1544 42.4286 11.1544L41.4791 11.0851Z" fill="#C8F0EF"/>
<path fill-rule="evenodd" clip-rule="evenodd" d="M50.9557 5.58418C51.7672 4.90963 52.7683 4.37288 53.8386 4.37288C54.8913 4.37288 56.3757 5.01317 56.3757 7.40034V14.2657H53.821V8.43804C53.821 7.65957 53.8731 6.43154 52.7683 6.43154C52.026 6.43154 51.439 6.96751 50.9557 7.48675V14.2657H48.4011V0.810608H50.9557V5.58418Z" fill="#C8F0EF"/>
<path fill-rule="evenodd" clip-rule="evenodd" d="M61.0193 4.5817H63.004V6.70927H61.0193V11.6386C61.0193 12.1057 61.1568 12.5895 61.9854 12.5895C62.4166 12.5895 62.6933 12.4166 63.004 12.2264V14.1811C62.4691 14.3368 61.9162 14.4746 61.3638 14.4746C59.7762 14.4746 58.4643 13.5754 58.4643 11.4654V6.70927H57.2737V4.5817H58.4643V2.16064H61.0193V4.5817Z" fill="#C8F0EF"/>
<path fill-rule="evenodd" clip-rule="evenodd" d="M73.6363 14.266H72.2557L69.9769 3.26628H69.9423L67.5431 14.266H66.1621L63.3488 0.810608H64.6948L66.9045 11.6718H66.9386L69.3557 0.810608H70.6843L72.981 11.6718H73.0147L75.3798 0.810608H76.7092L73.6363 14.266Z" fill="#C8F0EF"/>
<path fill-rule="evenodd" clip-rule="evenodd" d="M82.4049 9.49594C82.4049 7.87048 82.0079 5.58723 79.9365 5.58723C77.8651 5.58723 77.4682 7.87048 77.4682 9.49594C77.4682 11.1222 77.8651 13.405 79.9365 13.405C82.0079 13.405 82.4049 11.1222 82.4049 9.49594ZM76.1221 9.49594C76.1221 5.91613 77.8135 4.44598 79.9365 4.44598C82.0599 4.44598 83.7513 5.91613 83.7513 9.49594C83.7513 13.0765 82.0599 14.5463 79.9365 14.5463C77.8135 14.5463 76.1221 13.0765 76.1221 9.49594Z" fill="#C8F0EF"/>
<path fill-rule="evenodd" clip-rule="evenodd" d="M86.1511 6.77649H86.1857C86.7206 5.63486 87.4108 4.57965 88.8266 4.57965H89.3447V5.80729C87.5838 5.56519 86.6691 7.46817 86.1511 8.85188V14.2647H84.8044V4.71822H86.1511V6.77649Z" fill="#C8F0EF"/>
<path fill-rule="evenodd" clip-rule="evenodd" d="M91.778 9.14682L95.3167 4.7189H96.8186L94.1945 7.98769L97.2152 14.266H95.7656L93.3314 9.07756L91.778 10.9972V14.266H90.4323V0.810608H91.778V9.14682Z" fill="#C8F0EF"/>
<path fill-rule="evenodd" clip-rule="evenodd" d="M103.05 6.84993C102.515 6.05433 101.875 5.58762 100.874 5.58762C99.9945 5.58762 99.166 6.03681 99.166 7.00563C99.166 9.34029 104.189 8.32048 104.189 11.5371C104.189 13.4051 102.86 14.5467 101.064 14.5467C99.5279 14.5467 98.2851 13.8722 97.508 12.5403L98.5787 11.8657C99.0976 12.8516 99.9253 13.4051 101.064 13.4051C102.048 13.4051 102.928 12.8691 102.928 11.7793C102.928 9.37534 97.9054 10.5165 97.9054 7.09204C97.9054 5.44906 99.2529 4.44598 100.823 4.44598C102.152 4.44598 103.256 4.9991 103.998 6.10648L103.05 6.84993Z" fill="#C8F0EF"/>
</svg>
