<svg width="95" height="32" viewBox="0 0 95 32" fill="none" xmlns="http://www.w3.org/2000/svg">
<g clip-path="url(#clip0)">
<path d="M33.4273 7.11182C32.9286 7.11182 32.5242 7.50972 32.5242 8.00047V20.4865C32.5242 20.9767 32.9286 21.3748 33.4273 21.3748H36.2968C37.9248 21.3748 39.4017 21.2082 40.3501 20.9175C41.0327 20.7094 41.7201 20.2695 42.513 19.5316C43.1845 18.9078 43.7125 18.126 44.0816 17.2077C44.4632 16.2571 44.6493 15.2545 44.6493 14.1429C44.6493 12.5919 44.3174 11.2573 43.6334 10.0653C43.0127 8.98125 42.1929 8.21035 41.0516 7.63739C40.0032 7.1119 38.4446 7.11182 36.4719 7.11182H33.4273ZM87.548 7.11182C87.3469 7.11182 87.1834 7.27189 87.1834 7.46979V21.0165C87.1834 21.2145 87.3469 21.3751 87.548 21.3751H94.4317C94.6319 21.3751 94.7971 21.2145 94.7971 21.0165V19.4235C94.7971 19.2247 94.6319 19.0645 94.4317 19.0645H89.9367V7.46979C89.9367 7.27189 89.7732 7.11182 89.573 7.11182H87.548ZM35.2777 9.42233H36.6648C38.5082 9.42233 39.7716 9.77874 40.5287 10.5123C41.4289 11.3849 41.8658 12.5523 41.8658 14.0814C41.8658 15.109 41.6663 16.0464 41.3059 16.7198C40.8712 17.5271 40.3699 18.0904 39.8561 18.3484C39.1494 18.7022 38.2594 19.0645 37.0194 19.0645H35.2777V9.42233ZM52.2397 10.1243C50.6039 10.1243 49.2804 10.6561 48.1955 11.7499C47.1097 12.8449 46.5825 14.1829 46.5825 15.8399C46.5825 17.457 47.111 18.7656 48.2006 19.8399C49.2886 20.9142 50.6595 21.4359 52.3913 21.4359C53.5043 21.4359 54.4692 21.2435 55.2582 20.8647C55.9232 20.546 56.5136 20.0837 57.0149 19.49C57.0873 19.4043 57.1144 19.2903 57.089 19.1813C57.0649 19.0728 56.9895 18.9817 56.887 18.9346L55.2582 18.1978C55.1299 18.1393 54.9761 18.1601 54.8676 18.2521C54.1405 18.8704 53.3002 19.1844 52.3708 19.1844C51.4422 19.1844 50.7371 18.9771 50.2151 18.5512C49.6595 18.0974 49.3511 17.6235 49.2093 16.9925H57.6926C57.8929 16.9925 58.0561 16.8336 58.0574 16.6362L58.059 16.2823C58.059 14.4355 57.4693 12.7843 56.4408 11.7499C55.3528 10.6561 53.9794 10.1243 52.2397 10.1243ZM65.6496 10.1243C64.0125 10.1243 62.6904 10.6561 61.6054 11.7499C60.52 12.8449 59.9924 14.1829 59.9924 15.8399C59.9924 17.4566 60.5213 18.7648 61.6105 19.8399C62.6985 20.9142 64.0694 21.4359 65.8012 21.4359C66.9142 21.4359 67.8789 21.2435 68.6679 20.8647C69.3325 20.546 69.9235 20.0836 70.4248 19.4903C70.4968 19.4043 70.5252 19.2903 70.4989 19.1819C70.4748 19.0729 70.3998 18.9817 70.2969 18.9346L68.6679 18.1978C68.5388 18.1393 68.3854 18.1601 68.2773 18.2521C67.549 18.8704 66.7091 19.1844 65.7805 19.1844C64.8519 19.1844 64.1469 18.9772 63.6235 18.5518C63.0679 18.0974 62.761 17.6231 62.6192 16.9925H71.1023C71.303 16.9925 71.4651 16.8336 71.466 16.6362L71.4689 16.2823C71.4689 14.4351 70.8792 12.7835 69.8507 11.7499C68.7615 10.6561 67.3879 10.1243 65.6496 10.1243ZM79.9975 10.1243C79.3359 10.1243 78.6661 10.2535 78.1088 10.4896C77.4593 10.7633 76.8624 11.1476 76.4278 11.5719L76.169 11.7754L75.0025 10.6976H73.7781C73.5778 10.6976 73.4154 10.8574 73.4154 11.0545V25.0015C73.4154 25.1994 73.5783 25.3596 73.7794 25.3596H75.8042C76.0053 25.3596 76.169 25.1991 76.169 25.0008V19.845L76.4265 20.0378C76.9808 20.5479 77.6971 20.8997 78.2032 21.1056C78.7412 21.3243 79.332 21.4363 79.9586 21.4363C81.3825 21.4363 82.5795 20.9074 83.6192 19.8208C84.6563 18.7372 85.1615 17.4218 85.1615 15.7999C85.1615 14.1531 84.6551 12.7784 83.652 11.7147C82.6605 10.659 81.4309 10.1243 79.9975 10.1243ZM52.3771 12.345C53.0413 12.345 53.6789 12.5568 54.2706 12.9742C54.7909 13.3408 55.1699 13.8768 55.3616 14.5062L55.4041 14.6812H49.234L49.2977 14.5176C49.6655 13.7248 50.0019 13.2251 50.3258 12.9899C50.9116 12.5623 51.6018 12.345 52.3771 12.345ZM65.7861 12.345C66.4506 12.345 67.0887 12.5564 67.6796 12.9742C68.2004 13.3408 68.5797 13.877 68.7705 14.5067L68.814 14.6812H62.6442L62.7083 14.5172C63.0731 13.7265 63.4091 13.2268 63.7339 12.9899C64.3214 12.5623 65.0108 12.345 65.7861 12.345ZM79.4643 12.5542C80.3369 12.5542 81.0681 12.8577 81.6392 13.4577C82.2104 14.0561 82.5011 14.8345 82.5011 15.7706C82.5011 16.7136 82.2062 17.4997 81.6251 18.1083C81.0437 18.7173 80.3162 19.0267 79.4643 19.0267C78.5865 19.0267 77.8486 18.7224 77.2693 18.124C76.6922 17.5243 76.3985 16.7293 76.3985 15.761C76.3985 14.8109 76.6922 14.0315 77.2702 13.4424C77.8487 12.8529 78.5865 12.5542 79.4643 12.5542Z" fill="#C8F0EF"/>
<path d="M17.643 16.3641C16.4383 16.3641 15.4622 15.4038 15.4622 14.2185C15.4622 14.0935 15.473 13.9709 15.4946 13.8519L10.2796 10.8973C9.9002 11.2125 9.40962 11.4028 8.8742 11.4028C7.66955 11.4028 6.69314 10.4421 6.69314 9.25725C6.69314 8.07234 7.66955 7.11162 8.8742 7.11162C10.0789 7.11162 11.0553 8.07234 11.0553 9.25725C11.0553 9.39373 11.0411 9.52718 11.0161 9.65682L16.2121 12.6005C16.595 12.272 17.0955 12.0728 17.643 12.0728C18.8467 12.0728 19.8232 13.0336 19.8232 14.2185C19.8232 15.4038 18.8467 16.3641 17.643 16.3641ZM11.0286 19.2136C11.0286 20.3985 10.0526 21.3592 8.84792 21.3592C7.64414 21.3592 6.66773 20.3985 6.66773 19.2136C6.66773 18.0283 7.64414 17.0676 8.84792 17.0676C9.38934 17.0676 9.88377 17.2621 10.265 17.5833L14.0668 15.4334C14.2292 15.8949 14.4816 16.3153 14.8025 16.6747L10.9937 18.8288C11.0161 18.9539 11.0286 19.0822 11.0286 19.2136ZM24.141 6.11912L13.786 0.297178C13.0809 -0.0990592 12.2152 -0.0990592 11.5101 0.297178L1.15601 6.11912C0.441041 6.52086 0 7.26927 0 8.07869V19.9217C0 20.7278 0.437164 21.4732 1.14697 21.8762L18.9725 32L18.9755 24.8093L24.1483 21.8762C24.8589 21.4732 25.2965 20.7278 25.2965 19.9209V8.07869C25.2965 7.26927 24.8555 6.52086 24.141 6.11912Z" fill="#C8F0EF"/>
</g>
<defs>
<clipPath id="clip0">
<rect width="95" height="32" fill="white"/>
</clipPath>
</defs>
</svg>
