<svg width="93" height="18" viewBox="0 0 93 18" fill="none" xmlns="http://www.w3.org/2000/svg">
<mask id="mask0" style="mask-type:alpha" maskUnits="userSpaceOnUse" x="0" y="0" width="93" height="18">
<path d="M70.8353 8.46891H84.2423C86.9033 8.46891 87.6034 7.34949 87.364 5.97537C87.1832 4.97373 86.3626 4.14876 84.2423 4.14876H70.8353V8.46891ZM67.6342 0.811112L84.4218 0.830238C88.7444 0.830238 90.7456 2.85316 91.2054 5.44485C91.8056 8.84193 90.1446 11.6893 84.8424 11.8076L92.2887 16.4146C92.5695 16.5883 92.6538 16.9522 92.4764 17.227C92.3662 17.3982 92.1751 17.5023 91.9693 17.5023H88.6212C88.5059 17.5023 88.3922 17.4696 88.2958 17.4082L79.4396 11.8076H70.8353V16.913C70.8353 17.2386 70.5665 17.5023 70.2352 17.5023H67.6337C67.3019 17.5023 67.0332 17.2386 67.0332 16.913V1.40052C67.0332 1.07537 67.3019 0.811112 67.6337 0.811112H67.6342ZM39.6195 0.810608H61.8309C62.1622 0.810608 62.431 1.07436 62.431 1.39951V3.57897C62.431 3.90463 62.1622 4.16788 61.8309 4.16788H61.8298L42.821 4.14876V7.6832H59.4295C59.7614 7.6832 60.0301 7.94746 60.0301 8.27262V10.0399C60.0301 10.3655 59.7614 10.6292 59.4295 10.6292H42.821V14.1677H61.8309C62.1622 14.1677 62.431 14.432 62.431 14.7566V16.913C62.431 17.2386 62.1622 17.5023 61.8309 17.5023H39.6195C39.2882 17.5023 39.0194 17.2386 39.0194 16.913V1.39951C39.0194 1.07436 39.2882 0.810608 39.6195 0.810608ZM31.4157 0.810608H34.0166C34.3485 0.810608 34.6173 1.07436 34.6173 1.39951V16.913C34.6173 17.2386 34.3485 17.5023 34.0166 17.5023H31.4157C31.084 17.5023 30.8152 17.2386 30.8152 16.913V1.39951C30.8152 1.07436 31.084 0.810608 31.4157 0.810608ZM0.600086 0.810608H25.8129C26.1443 0.810608 26.413 1.07436 26.413 1.39951V3.55985C26.413 3.88551 26.1443 4.14876 25.8129 4.14876H15.1072V16.913C15.1072 17.2386 14.8385 17.5023 14.5072 17.5023H11.9058C11.5745 17.5023 11.3057 17.2386 11.3057 16.913V4.14876H0.600086C0.268756 4.14876 0 3.88551 0 3.55985V1.39951C0 1.07436 0.268756 0.810608 0.600086 0.810608Z" fill="white"/>
</mask>
<g mask="url(#mask0)">
<path d="M70.8353 8.46971H84.2423C86.9033 8.46971 87.6034 7.35028 87.364 5.97617C87.1832 4.97452 86.3626 4.14955 84.2423 4.14955H70.8353V8.46971ZM67.6342 0.811905L84.4218 0.831032C88.7444 0.831032 90.7456 2.85395 91.2054 5.44565C91.8056 8.8427 90.1446 11.69 84.8424 11.8083L92.2887 16.4154C92.5695 16.589 92.6538 16.953 92.4764 17.2278C92.3662 17.399 92.1751 17.5031 91.9693 17.5031H88.6212C88.5059 17.5031 88.3922 17.4704 88.2958 17.409L79.4396 11.8083H70.8353V16.9137C70.8353 17.2394 70.5665 17.5031 70.2352 17.5031H67.6337C67.3019 17.5031 67.0332 17.2394 67.0332 16.9137V1.40131C67.0332 1.07616 67.3019 0.811905 67.6337 0.811905H67.6342ZM39.6195 0.811401H61.8309C62.1622 0.811401 62.431 1.07515 62.431 1.40031V3.57977C62.431 3.90543 62.1622 4.16868 61.8309 4.16868H61.8298L42.821 4.14955V7.68399H59.4295C59.7614 7.68399 60.0301 7.94825 60.0301 8.27341V10.0406C60.0301 10.3663 59.7614 10.63 59.4295 10.63H42.821V14.1685H61.8309C62.1622 14.1685 62.431 14.4327 62.431 14.7574V16.9137C62.431 17.2394 62.1622 17.5031 61.8309 17.5031H39.6195C39.2882 17.5031 39.0194 17.2394 39.0194 16.9137V1.40031C39.0194 1.07515 39.2882 0.811401 39.6195 0.811401ZM31.4157 0.811401H34.0166C34.3485 0.811401 34.6173 1.07515 34.6173 1.40031V16.9137C34.6173 17.2394 34.3485 17.5031 34.0166 17.5031H31.4157C31.084 17.5031 30.8152 17.2394 30.8152 16.9137V1.40031C30.8152 1.07515 31.084 0.811401 31.4157 0.811401ZM0.600086 0.811401H25.8129C26.1443 0.811401 26.413 1.07515 26.413 1.40031V3.56064C26.413 3.8863 26.1443 4.14955 25.8129 4.14955H15.1072V16.9137C15.1072 17.2394 14.8385 17.5031 14.5072 17.5031H11.9058C11.5745 17.5031 11.3057 17.2394 11.3057 16.9137V4.14955H0.600086C0.268756 4.14955 0 3.8863 0 3.56064V1.40031C0 1.07515 0.268756 0.811401 0.600086 0.811401Z" fill="white"/>
<path d="M92.5694 0.810608H0V17.5023H92.5694V0.810608Z" fill="#C8F0EF"/>
</g>
</svg>
