<svg width="60" height="19" viewBox="0 0 60 19" fill="none" xmlns="http://www.w3.org/2000/svg">
<path d="M25.409 11.3052C25.409 12.4278 24.6415 12.932 23.8739 12.932C22.9269 12.932 22.3387 12.2565 22.3387 11.6382C22.3387 11.0198 22.6877 10.6583 23.4353 10.4871L25.0203 10.1446C25.1798 10.1066 25.3093 10.0685 25.409 10.0209V11.3052ZM26.6152 11.3433V8.46069C26.6152 7.02415 25.4588 5.98717 23.8739 5.98717C22.3387 5.98717 21.1226 7.05268 21.1226 8.39409V8.49874C21.1226 8.80317 21.3519 8.99344 21.7307 8.99344C22.1095 8.99344 22.3387 8.81269 22.3387 8.49874V8.42263C22.3387 7.64252 23.0166 7.02415 23.8739 7.02415C24.7611 7.02415 25.409 7.63301 25.409 8.47971V8.84123C25.409 8.94588 25.2496 9.05051 25.0103 9.09811L23.1561 9.49765C21.7905 9.8021 21.1226 10.4966 21.1226 11.6382C21.1226 12.951 22.3288 13.969 23.8739 13.969C25.4887 13.969 26.6152 12.8939 26.6152 11.3433ZM33.0349 11.3243C33.0349 12.3136 32.4168 12.951 31.4698 12.951C30.5228 12.951 29.9047 12.3136 29.9047 11.3243V8.6795C29.9047 7.6901 30.5228 7.05268 31.4698 7.05268C32.4168 7.05268 33.0349 7.6901 33.0349 8.6795V11.3243ZM34.2411 11.3909V4.14156C34.2411 3.83712 34.0118 3.64685 33.633 3.64685C33.2542 3.64685 33.0249 3.8276 33.0249 4.14156V6.61507C32.5963 6.23452 31.9783 6.0062 31.3203 6.0062C30.0044 6.0062 28.6787 6.90047 28.6787 8.59387V11.3814C28.6787 13.1604 30.1141 13.969 31.4599 13.969C32.8056 13.9881 34.2411 13.1699 34.2411 11.3909ZM36.6235 13.7787C36.6235 14.7206 36.1251 15.4817 35.2778 15.8051C35.0385 15.9003 34.8292 16.1476 34.9887 16.5281C35.0784 16.766 35.2778 16.8991 35.527 16.8991C35.6067 16.8991 35.6964 16.8801 35.7662 16.8611C37.0621 16.4235 37.8397 15.3009 37.8397 13.8453V6.45334C37.8397 6.14891 37.6104 5.95864 37.2316 5.95864C36.8527 5.95864 36.6235 6.13939 36.6235 6.45334V13.7787ZM37.8895 4.83604V4.25572C37.8895 3.90371 37.6303 3.66588 37.2515 3.66588C36.8727 3.66588 36.6136 3.90371 36.6136 4.25572V4.83604C36.6136 5.18804 36.8727 5.42587 37.2515 5.42587C37.6303 5.42587 37.8895 5.18804 37.8895 4.83604ZM45.5951 11.4099V6.47236C45.5951 6.16793 45.3658 5.97766 44.987 5.97766C44.6083 5.97766 44.379 6.15842 44.379 6.47236V11.3433C44.379 12.3327 43.7609 12.9701 42.8139 12.9701C41.8669 12.9701 41.2489 12.3327 41.2489 11.3433V6.47236C41.2489 6.16793 41.0196 5.97766 40.6408 5.97766C40.2619 5.97766 40.0327 6.15842 40.0327 6.47236V11.4099C40.0327 13.1889 41.4681 13.9976 42.8139 13.9976C44.1596 14.0071 45.5951 13.1984 45.5951 11.4099ZM48.8847 8.07063C48.8847 7.44274 49.4429 7.00512 50.2404 7.00512C51.0678 7.00512 51.6957 7.50933 51.6957 8.18479V8.22285C51.6957 8.52728 51.925 8.71755 52.3039 8.71755C52.6827 8.71755 52.9119 8.5368 52.9119 8.22285V8.1182C52.9119 6.90998 51.7356 5.95864 50.2404 5.95864C48.775 5.95864 47.6785 6.87193 47.6785 8.08015C47.6785 9.24079 48.456 10.0019 50.061 10.3824C51.2771 10.6678 51.7954 11.0864 51.7954 11.7904C51.7954 12.4754 51.2572 12.8939 50.38 12.8939C49.5725 12.8939 48.8847 12.3707 48.8847 11.7428V11.6857C48.8847 11.3814 48.6554 11.1911 48.2766 11.1911C47.8978 11.1911 47.6685 11.3719 47.6685 11.6857V11.7428C47.6685 12.9701 48.8548 13.931 50.37 13.931C51.945 13.931 52.9916 13.0652 52.9916 11.7809C52.9916 10.5251 52.2042 9.77351 50.4398 9.35497C49.3831 9.11711 48.8847 8.70803 48.8847 8.07063ZM56.9491 11.8285V7.24295H59.1522C59.4512 7.24295 59.6206 7.05268 59.6206 6.71971C59.6206 6.33917 59.3815 6.19647 59.1522 6.19647H56.9491V4.15107C56.9491 3.84663 56.7198 3.65637 56.341 3.65637C55.9623 3.65637 55.733 3.83712 55.733 4.15107V6.19647H54.6664C54.3673 6.19647 54.1978 6.38674 54.1978 6.71971C54.1978 7.04317 54.3773 7.24295 54.6664 7.24295H55.733V11.8856C55.733 13.1508 56.7099 14.0356 58.1155 14.0356C58.6437 14.0356 59.1621 13.8929 59.541 13.636C59.81 13.4363 59.8699 13.1413 59.6705 12.8844C59.5111 12.6657 59.3416 12.6276 59.2219 12.6276C59.1222 12.6276 59.0126 12.6657 58.9129 12.7323C58.6936 12.9035 58.4046 12.9891 58.1055 12.9891C57.2582 12.9891 56.9491 12.3898 56.9491 11.8285Z" fill="#C8F0EF"/>
<path d="M12.6998 11.6916L12.0519 11.2445C10.746 10.3406 9.55975 9.57953 8.50307 8.9802L8.2738 8.82798L9.80889 5.52679L12.6998 11.6916ZM13.6169 13.8797L14.6237 12.9188L10.5865 4.30906H9.07127L7.25702 8.29523L7.05765 8.2001C5.97109 7.68637 5.13374 7.43901 4.50573 7.43901C3.68832 7.43901 3.31949 7.86712 3.16996 8.11447C2.72138 8.87556 2.98056 9.94107 3.9475 11.3681C4.30637 11.8914 4.68516 12.3765 4.96428 12.7095H6.41967L7.01778 11.4156L6.38977 10.0647L5.6521 11.6059L5.40289 11.3015C5.2434 11.0922 5.0839 10.8829 4.95431 10.6832C4.15684 9.52244 4.03722 8.92312 4.21664 8.70431C4.38611 8.50452 5.38295 8.7709 6.47948 9.28466C7.07759 9.54152 7.69563 9.86498 8.3037 10.2645C8.74231 10.5214 9.20086 10.8068 9.67939 11.1208C11.4438 12.2528 13.0288 13.442 13.6169 13.8797ZM17.2753 9.66521C17.2753 13.8987 13.6667 17.3522 9.23077 17.3522C4.79481 17.3522 1.18625 13.9082 1.18625 9.66521C1.18625 5.43166 4.79481 1.97825 9.23077 1.97825C13.6667 1.97825 17.2753 5.43166 17.2753 9.66521ZM18.4615 9.66521C18.4615 4.80377 14.3147 0.855652 9.23077 0.855652C4.1369 0.855652 0 4.81328 0 9.66521C0 14.5171 4.1369 18.4747 9.23077 18.4747C14.3147 18.4747 18.4615 14.5266 18.4615 9.66521Z" fill="#C8F0EF"/>
</svg>
