<svg width="110" height="19" viewBox="0 0 110 19" fill="none" xmlns="http://www.w3.org/2000/svg">
<path d="M59.2635 17.3168C62.4855 17.3168 65.024 14.9455 65.024 11.9102C65.024 8.87492 62.4855 6.5036 59.2635 6.5036C56.0416 6.5036 53.5031 8.87492 53.5031 11.9102C53.5031 14.993 56.0416 17.3168 59.2635 17.3168ZM59.2635 8.40065C61.3138 8.40065 62.876 9.91834 62.876 11.9102C62.876 13.997 61.3627 15.4672 59.2635 15.4672C57.1643 15.4672 55.651 13.9496 55.651 11.9102C55.651 9.87084 57.1643 8.40065 59.2635 8.40065ZM42.0799 17.1745V6.74073H43.3491L49.5489 13.3804V6.74073H51.648V17.1745H50.4276L44.2278 10.4874V17.1745H42.0799ZM69.5152 17.1271L65.4145 6.74072H67.6601L67.709 6.883L70.1986 13.4753L72.9812 6.74072H74.1528V6.78816L76.8866 13.4753L79.3763 6.74073H81.6219L77.5212 17.1745H76.3496L73.5182 10.2029L70.6868 17.1745L69.5152 17.1271Z" fill="#C8F0EF"/>
<path d="M90.6048 18.3106V5.88481L80.0114 0.0513306H85.1373L93.1434 4.46201V12.4297L106.178 0.0513306H109.79L90.6048 18.3106Z" fill="#C8F0EF"/>
<path d="M21.0402 17.1715V6.73761H28.9975V8.53981H23.0906V10.9111H28.4605V12.6659H23.0906V15.3218H28.9975V17.124H21.0402V17.1715ZM0 17.1715V6.73761H7.81076V8.53981H2.05033V10.9585H7.32259V12.7607H2.05033V17.1715H0ZM16.1097 12.9031C17.6719 12.4762 18.5993 11.338 18.5993 9.91518C18.5993 8.06556 16.9884 6.73761 14.7428 6.73761H10.1052V17.1715H12.2043V13.0453H13.8641L16.7443 17.1715H19.1363L16.1097 12.9031ZM12.2043 11.2431V8.53981H14.694C15.8168 8.53981 16.5003 9.06154 16.5003 9.91518C16.5003 10.7688 15.8168 11.2431 14.694 11.2431H12.2043ZM31.4384 17.1715V6.73761H39.3956V8.53981H33.4887V10.9111H38.8585V12.6659H33.4887V15.3218H39.3956V17.124H31.4384V17.1715Z" fill="#C8F0EF"/>
</svg>
