<svg width="75" height="24" viewBox="0 0 75 24" fill="none" xmlns="http://www.w3.org/2000/svg">
<g clip-path="url(#clip0)">
<path d="M10.7696 12.5536C9.87662 15.6732 9.14029 18.2935 9.08029 18.6487C9.05727 18.8292 8.96744 18.9952 8.82785 19.1151C8.68826 19.235 8.50868 19.3004 8.32317 19.299C8.29545 19.299 8.26731 19.299 8.23877 19.299C8.04033 19.2761 7.85912 19.1773 7.73452 19.0241C7.60992 18.8708 7.55201 18.6756 7.57335 18.4807C7.60638 18.188 8.20452 16.0307 8.93479 13.4654C7.9024 13.937 7.05349 14.2417 6.52997 14.3053C6.44566 14.3169 6.36066 14.3228 6.27554 14.3233C5.76302 14.3233 5.50493 14.0834 5.37649 13.8722C5.29486 13.7342 5.26066 13.5742 5.27894 13.4157C5.29722 13.2573 5.36703 13.1088 5.47801 12.9923C5.58899 12.8757 5.73528 12.7973 5.8952 12.7687C6.05514 12.74 6.22023 12.7627 6.36605 12.8332C6.81619 12.7708 7.96845 12.3064 9.48274 11.5361C10.2424 8.88809 11.0276 6.18727 11.4191 4.84347C11.4781 4.65852 11.6084 4.5035 11.7822 4.4115C11.9561 4.3195 12.1598 4.2978 12.3498 4.35104C12.5396 4.40427 12.7009 4.52823 12.799 4.69644C12.8971 4.86466 12.9243 5.06381 12.8747 5.2514C12.4099 6.84718 11.8692 8.70932 11.3445 10.5307C11.9976 10.1599 12.69 9.7496 13.3848 9.30684C17.1681 6.90717 19.7454 4.6131 20.2653 3.15051C20.461 2.60459 20.3179 2.35262 20.0414 2.14265C19.3784 1.63752 17.3406 1.57513 13.6074 2.91174C8.01248 4.91426 2.10199 8.8029 1.5381 10.8306C1.59571 10.8417 1.65431 10.8469 1.71302 10.8462C1.81432 10.8383 1.91621 10.8504 2.01262 10.882C2.10904 10.9134 2.19799 10.9636 2.27419 11.0296C2.3504 11.0956 2.41229 11.1759 2.45618 11.2658C2.50007 11.3557 2.52506 11.4533 2.52965 11.553C2.53426 11.6525 2.51837 11.752 2.48295 11.8454C2.44753 11.9388 2.3933 12.0244 2.32348 12.0968C2.25367 12.1692 2.16971 12.2271 2.0766 12.267C1.98349 12.3069 1.88314 12.3281 1.78151 12.3292C1.62128 12.3364 0.794395 12.3484 0.313678 11.7892C0.175912 11.6241 0.0796674 11.4294 0.0327102 11.221C-0.0142468 11.0125 -0.0106016 10.7963 0.0433519 10.5894C0.420097 8.8581 2.82857 6.96236 4.78202 5.66775C7.37897 3.97232 10.1683 2.57914 13.0937 1.51634C15.7626 0.556474 19.2964 -0.309803 20.9759 0.968017C21.7587 1.56793 22.0426 2.427 21.7759 3.39887C21.4322 4.65509 19.9166 6.86758 14.6508 10.2715C13.3383 11.1197 11.9928 11.9044 10.7696 12.5536ZM61.5739 11.5589C60.9916 13.1391 59.6277 16.8381 61.3194 17.5988C61.4951 17.685 61.6296 17.8346 61.6949 18.0162C61.7602 18.1979 61.751 18.3972 61.6693 18.5724C61.5876 18.7474 61.4397 18.8845 61.2569 18.9548C61.0741 19.025 60.8706 19.0228 60.6895 18.9486C58.5427 17.9888 58.8143 15.3852 59.4247 13.2171C57.0162 16.0187 55.5104 17.4404 54.3166 17.4404C54.1348 17.4426 53.9553 17.4017 53.793 17.3213C53.6307 17.2409 53.4906 17.1233 53.3846 16.9786C52.7424 16.1134 53.1619 14.3641 54.4132 10.5163C54.4561 10.3843 54.5001 10.2475 54.5454 10.1095C54.4353 10.2511 54.317 10.4111 54.1906 10.5894C53.4213 11.6693 52.6188 13.0395 51.9106 14.2489C51.4213 15.0888 50.9907 15.8231 50.6299 16.363C50.2691 16.9029 49.7369 17.7032 48.9798 17.426C48.8656 17.3826 48.7613 17.3172 48.6731 17.2339C48.5848 17.1504 48.5145 17.0506 48.4661 16.9402C48.3438 16.6606 48.0991 16.1398 49.0459 12.4048C49.2073 11.7665 49.3822 11.1186 49.5462 10.5379C48.2666 11.6465 47.1425 12.2884 46.2043 12.6508C46.0944 13.2708 45.8907 13.8714 45.6001 14.4325C44.2118 17.1261 42.5323 18.4028 40.8724 18.032C40.2351 17.888 39.7581 17.4428 39.5269 16.7805C38.9532 15.138 39.9538 12.5368 42.2045 9.8216C42.3049 9.70027 42.4416 9.61324 42.5954 9.57271C42.7491 9.53218 42.912 9.54035 43.0608 9.596C43.2158 9.47387 43.3793 9.3624 43.55 9.2624C44.1469 8.92044 44.6619 8.8413 45.0814 9.02249C45.6038 9.2624 45.8949 9.8096 46.0466 10.2331C46.1346 10.483 46.1985 10.7405 46.2374 11.0022C47.2062 10.5222 48.4331 9.6656 49.8702 8.1454C50.1761 7.82144 50.7461 7.22033 51.3761 7.60787C52.006 7.99541 51.7051 8.72131 51.5656 9.07289C51.3687 9.5672 50.5981 12.2536 50.1602 14.2537C50.3094 14.0018 50.4574 13.7486 50.5981 13.5075C52.702 9.90791 54.1943 7.54548 55.6939 7.4291C55.8256 7.41876 55.9579 7.44039 56.0791 7.49208C56.2002 7.54376 56.3066 7.62391 56.3887 7.72546C56.7484 8.17059 56.6162 8.62532 55.8554 10.965C55.4603 12.178 54.593 14.8464 54.5918 15.8543C54.8719 15.7092 55.3906 15.3516 56.2627 14.4769C57.1984 13.5387 58.1978 12.3532 59.0002 11.4018C60.265 9.90195 60.5439 9.60196 60.8962 9.48204C61.0382 9.43084 61.1921 9.42071 61.3398 9.4528C61.4874 9.48498 61.6226 9.55795 61.7291 9.6632C62.1243 10.0567 61.9738 10.4659 61.5701 11.5589H61.5739ZM44.5408 13.0539C44.3119 13.0757 44.0817 13.0802 43.8521 13.0671C43.1182 13.0215 42.5177 12.7767 42.1617 12.388C40.8724 14.3965 40.7575 15.7476 40.9495 16.2899C41.0364 16.5382 41.1587 16.567 41.2052 16.5766C42.0919 16.7781 43.2271 15.7247 44.2399 13.7594C44.3576 13.5317 44.4582 13.296 44.5408 13.0539ZM44.7585 11.5217C44.7498 11.1456 44.6539 10.7764 44.4784 10.4419C44.1115 10.5883 43.4999 11.1341 43.3654 11.4473C43.5925 11.5493 43.841 11.5974 44.0906 11.5877C44.3151 11.5896 44.5391 11.5675 44.7585 11.5217ZM74.8113 9.17964C72.7783 11.3837 71.0194 12.2812 69.6555 12.5776C69.5298 12.964 69.3719 13.3396 69.1833 13.7006C67.5516 16.8357 65.9834 17.6204 64.8238 17.6204C64.6471 17.6203 64.4709 17.6021 64.2979 17.5665C63.674 17.4356 63.197 17.0109 62.9682 16.3667C62.3567 14.6868 63.4294 11.9081 65.8452 8.94329C65.9437 8.81954 66.0797 8.72963 66.2335 8.68651C66.3874 8.64338 66.5512 8.64927 66.7015 8.70331C67.3045 8.20299 68.1204 7.76025 68.7882 8.05421C69.1894 8.23059 69.5111 8.63012 69.7191 9.20969C69.9056 9.76809 69.9856 10.3554 69.9551 10.9422C70.9594 10.5822 72.2144 9.7784 73.6945 8.17419C73.8306 8.03395 74.0172 7.95139 74.2145 7.94416C74.4118 7.93691 74.6042 8.00555 74.7506 8.13543C74.8971 8.26531 74.9861 8.44615 74.9985 8.63942C75.0109 8.83269 74.946 9.02311 74.8174 9.17004L74.8113 9.17964ZM68.0042 12.6711C66.9155 12.544 66.1511 12.0508 65.767 11.6021C65.3243 12.279 64.9553 12.9996 64.6661 13.7522C64.3383 14.6353 64.2379 15.432 64.3994 15.8699C64.4777 16.0847 64.5755 16.1099 64.6183 16.1099C65.5284 16.2995 66.7357 15.15 67.8415 13.0215C67.8929 12.9052 67.9541 12.7876 68.0042 12.6711ZM68.195 9.4976C67.7755 9.68 67.0721 10.3531 66.9657 10.6891C67.1259 10.8462 67.5773 11.1594 68.3344 11.2098H68.4079C68.5045 10.3891 68.3491 9.76275 68.195 9.4976ZM64.326 5.48658C64.5034 4.81587 64.1547 4.14516 63.5444 3.98919C62.934 3.83321 62.2968 4.25075 62.1169 4.92266C61.9371 5.59456 62.2894 6.26286 62.8985 6.41884C63.5077 6.57482 64.1462 6.15728 64.326 5.48658ZM39.4352 8.40216C39.1184 8.24138 38.6328 8.27378 38.3343 8.31457C36.8237 8.52214 35.1467 9.54915 34.5754 10.1827C34.7785 10.2703 35.0647 10.3687 35.2898 10.4491C36.3833 10.8306 37.8817 11.3549 38.4872 12.6663C38.8541 13.4702 38.8236 14.4337 38.3808 15.5292C37.0463 18.8311 34.4188 19.6445 32.9412 19.6445C32.6903 19.6491 32.4401 19.6191 32.1975 19.5557C31.3046 19.2966 30.6575 18.7519 30.326 17.9816C29.4955 16.0547 30.8887 13.3443 31.0502 13.0419C31.0962 12.9552 31.1593 12.8783 31.2357 12.8156C31.3121 12.7528 31.4004 12.7054 31.4954 12.6762C31.5905 12.6468 31.6906 12.6362 31.7899 12.6448C31.8891 12.6534 31.9856 12.6812 32.074 12.7263C32.1623 12.7716 32.2407 12.8334 32.3047 12.9084C32.3687 12.9833 32.417 13.0699 32.4469 13.1631C32.4768 13.2564 32.4876 13.3545 32.4788 13.4518C32.4701 13.5492 32.4418 13.6439 32.3957 13.7306C32.0495 14.3821 31.2544 16.315 31.7254 17.4044C31.882 17.7644 32.1706 17.9984 32.6342 18.1328C32.7712 18.1724 33.5284 18.2408 34.469 17.8076C35.2335 17.4572 36.2879 16.6822 36.9741 14.982C37.2604 14.2753 37.3056 13.703 37.1099 13.2795C36.7686 12.5416 35.6677 12.1564 34.7858 11.8468C33.9296 11.5493 33.2592 11.3141 33.0024 10.7262C32.943 10.5878 32.9131 10.4389 32.9143 10.2887C32.9156 10.1386 32.948 9.99022 33.0097 9.85271C30.8434 10.2127 29.1028 11.5661 27.827 13.8794C27.3444 14.7684 26.9601 15.7057 26.6809 16.675C26.4705 17.594 26.314 18.2348 26.314 18.2408C26.2754 18.4036 26.182 18.5489 26.0488 18.6532C25.9156 18.7575 25.7505 18.8147 25.58 18.8155C25.5333 18.8156 25.4866 18.8116 25.4406 18.8035C25.2488 18.7685 25.0781 18.6623 24.9641 18.507C24.8501 18.3516 24.8018 18.1591 24.829 17.9696C24.9229 17.3898 25.0552 16.8167 25.2253 16.2539C25.5923 14.6305 25.9495 13.0335 26.2039 11.7905C24.6284 13.8722 20.7606 18.5911 18.0709 18.6091C17.3014 18.6187 16.6641 18.2684 16.2251 17.6073C16.1736 17.5301 16.1271 17.45 16.0856 17.3673C15.6649 17.525 15.2282 17.638 14.7829 17.7044C13.578 17.8784 12.515 17.6313 11.7115 16.993C11.5588 16.8679 11.4626 16.6891 11.4432 16.4949C11.424 16.3009 11.4833 16.1071 11.6084 15.9556C11.7335 15.804 11.9144 15.7068 12.112 15.685C12.3095 15.6631 12.5079 15.7183 12.6643 15.8387C13.2539 16.3078 14.0221 16.3126 14.5627 16.2358C14.9796 16.1723 15.3869 16.0578 15.7749 15.8951C15.7565 14.2297 16.5516 12.3028 16.8758 11.5985C17.8213 9.50124 19.4543 7.16634 21.1875 6.89877C22.0107 6.77159 22.6982 7.03555 23.0762 7.61867C23.9067 8.91084 22.7899 11.0418 21.7074 12.6016C20.4549 14.4013 18.9638 15.8267 17.4458 16.7182C17.4597 16.7476 17.4756 16.7761 17.4934 16.8034C17.6868 17.0937 17.8861 17.1345 18.0598 17.1309C18.4904 17.1309 19.7846 16.8045 22.5037 13.8758C23.6275 12.662 24.6717 11.3796 25.6301 10.0364L25.7672 9.8216C26.2797 9.01644 26.6528 8.43455 27.3121 8.50174C27.4866 8.52444 27.6508 8.59605 27.7849 8.708C27.919 8.81995 28.0173 8.96747 28.068 9.13289C28.1341 9.32 28.1903 9.4928 27.8674 11.1858C29.5249 9.28524 31.6703 8.28218 34.1755 8.26658C34.2771 8.26683 34.3777 8.28682 34.4714 8.32537C35.5136 7.60547 36.9056 7.01276 38.1191 6.84238C39.6064 6.63481 40.3819 7.13154 40.7721 7.58628C41.1624 8.04101 41.2847 8.90604 39.6432 10.4527C39.5724 10.5247 39.4875 10.582 39.3937 10.6212C39.2998 10.6603 39.1989 10.6804 39.0969 10.6803C38.9949 10.6801 38.8939 10.6598 38.8001 10.6204C38.7064 10.5812 38.6216 10.5236 38.5511 10.4515C38.4806 10.3793 38.4256 10.2938 38.3895 10.2003C38.3534 10.1067 38.337 10.0069 38.3411 9.90693C38.3454 9.80702 38.3701 9.70889 38.4139 9.61858C38.4577 9.52827 38.5196 9.44747 38.5961 9.38124C38.9139 9.08818 39.1955 8.75961 39.4352 8.40216ZM17.3638 15.0012C18.45 14.2213 19.5179 13.1151 20.4573 11.7617C21.9447 9.6224 21.9251 8.62412 21.8028 8.42016C21.7722 8.37336 21.6805 8.35657 21.5876 8.35657C21.5343 8.35689 21.4811 8.3609 21.4285 8.36857C20.4193 8.52454 19.0702 10.4155 18.2592 12.208C17.839 13.0972 17.538 14.0361 17.3638 15.0012ZM73.0193 21.6315H1.68244V23.1169H73.0181L73.0193 21.6315Z" fill="#C8F0EF"/>
</g>
<defs>
<clipPath id="clip0">
<rect width="75" height="24" fill="white"/>
</clipPath>
</defs>
</svg>
