<svg width="84" height="19" viewBox="0 0 84 19" fill="none" xmlns="http://www.w3.org/2000/svg">
<path d="M8.26327 4.96143C8.28793 4.65106 8.21396 4.36457 8.06604 4.10196C7.81951 3.69609 7.3511 3.43347 6.80873 3.43347C6.14309 3.43347 5.5514 3.81546 5.25556 4.36457C5.15694 4.55557 5.10764 4.74656 5.08299 4.96143L4.91041 6.82363C4.91041 6.82363 5.57605 6.84751 5.87189 6.84751C8.26327 6.84751 8.26327 4.96143 8.26327 4.96143Z" fill="#C8F0EF"/>
<path d="M11.7397 8.06409C11.5425 7.96859 11.3452 7.92084 11.0987 7.92084H1.73041C1.38526 7.92084 1.08943 8.01634 0.818235 8.18346C0.374473 8.44608 0.0539787 8.92357 0.00467183 9.44878C-0.044635 10.0695 0.300513 10.6186 0.842888 10.8574C1.01546 10.9291 1.23735 10.9767 1.45922 10.9767H4.56555L4.29437 13.9133C4.26971 14.1282 4.29437 14.3192 4.36833 14.5102C4.56555 15.0593 5.08327 15.4413 5.74892 15.4413C6.38991 15.4413 6.98159 15.0832 7.27743 14.558C7.37605 14.367 7.45001 14.1521 7.47466 13.9372L7.74585 11.0006H10.8275C11.0494 11.0006 11.2713 10.9529 11.4685 10.8813C12.0602 10.6425 12.504 10.1173 12.578 9.47267C12.6025 8.82807 12.2574 8.30283 11.7397 8.06409Z" fill="#C8F0EF"/>
<path d="M23.3515 15.0608C22.7104 15.4427 21.8969 15.6337 20.9108 15.6337H17.1388L17.5579 11.1454H21.4778C22.5133 11.1454 23.3268 11.217 23.7952 11.599C24.2883 12.0287 24.4609 12.53 24.4116 13.2225C24.3129 14.1058 23.9678 14.7026 23.3515 15.0608ZM18.2236 3.64892H21.182C21.9709 3.64892 22.5872 3.83991 23.0556 4.2219C23.4994 4.58001 23.6966 5.10523 23.6474 5.79758C23.5734 6.6093 23.2775 7.20615 22.7844 7.56427C22.2667 7.94625 21.6504 8.11337 20.9354 8.11337H17.8291L18.2236 3.64892ZM24.954 9.11611C26.2606 8.37598 27.0002 7.15841 27.1481 5.46335C27.2714 3.98316 26.8276 2.81333 25.7675 2.02548C24.732 1.23764 23.4501 0.855652 21.9462 0.855652H16.9908C16.6457 0.855652 16.3253 0.951146 16.054 1.11826C15.8815 1.21376 15.7336 1.357 15.6103 1.50025C15.3638 1.78674 15.2158 2.09711 15.1665 2.45521L13.8599 16.8274C13.8352 17.2094 13.9339 17.5675 14.1804 17.854C14.279 17.9734 14.3776 18.0927 14.5009 18.1644C14.7474 18.3315 15.0432 18.427 15.3884 18.427H21.2805C22.957 18.427 24.4362 18.0211 25.6935 17.2094C26.9756 16.3738 27.7151 15.1562 27.8631 13.5806C27.9617 12.3868 27.7398 11.3603 27.1481 10.5485C26.655 9.90388 25.9154 9.40255 24.954 9.11611Z" fill="#C8F0EF"/>
<path d="M35.8997 15.5352C35.1848 15.8933 34.4698 16.0604 33.7796 16.0604C33.1879 16.0604 32.6701 15.9411 32.3003 15.7023C31.9551 15.4874 31.7826 15.1771 31.8319 14.7473C31.9305 13.6014 34.174 13.1956 36.1463 13.0761L35.8997 15.5352ZM35.0862 6.2243C33.9028 6.2243 32.7441 6.43917 31.5854 6.8689C30.5252 7.27476 29.9582 7.77612 29.909 8.39684C29.8843 8.73107 29.9829 9.01757 30.1801 9.23244C30.402 9.44732 30.6732 9.56666 31.0183 9.56666C31.1663 9.56666 31.4867 9.51889 32.4235 9.16078C33.1632 8.87432 33.8781 8.70721 34.5438 8.70721C35.234 8.70721 35.7271 8.89819 36.023 9.25632C36.2695 9.59054 36.3681 10.0919 36.3188 10.7604V10.832C34.1 11.023 32.4975 11.3095 31.4374 11.6915C29.761 12.3122 28.8489 13.3627 28.7009 14.819C28.6023 15.9411 28.9475 16.8483 29.7364 17.4928C30.5252 18.1375 31.5114 18.4478 32.6948 18.4478C33.9028 18.4478 34.9875 18.2329 35.9244 17.827C36.1709 18.2329 36.6147 18.4478 37.1817 18.4478C37.6007 18.4478 37.9953 18.3046 38.3404 18.018C38.6855 17.7316 38.8581 17.3735 38.9074 16.9676L39.4745 10.7843C39.5977 9.42343 39.3512 8.34909 38.7102 7.609C37.9953 6.67791 36.7626 6.2243 35.0862 6.2243Z" fill="#C8F0EF"/>
<path d="M48.2753 14.6074C47.5111 15.4191 46.451 15.825 45.0704 15.825C44.5034 15.825 44.035 15.8011 43.6652 15.7772L44.2568 9.30735C44.9225 9.02086 45.6375 8.87762 46.3524 8.87762C47.2645 8.87762 47.9795 9.16413 48.5219 9.76091C49.0889 10.4056 49.3108 11.265 49.2122 12.3155C49.1382 13.2466 48.8177 14.0105 48.2753 14.6074ZM47.1167 6.2276C46.2291 6.2276 45.3416 6.37084 44.4787 6.65733L44.8732 2.38388C44.8978 2.14514 44.8485 1.95416 44.7745 1.76316C44.5774 1.23793 44.0596 0.879822 43.4186 0.879822C42.8762 0.879822 42.3585 1.14244 42.038 1.5483C41.8409 1.78704 41.7176 2.07352 41.6929 2.38388L40.4109 16.5173C40.337 17.4484 40.7561 18.0453 41.6929 18.2363C42.4078 18.3795 43.3939 18.4273 44.602 18.4273C47.1906 18.4273 49.2122 17.7349 50.6174 16.3502C51.6775 15.3236 52.2939 13.9628 52.4417 12.3394C52.6143 10.501 52.2199 9.02086 51.2584 7.92265C50.2723 6.80058 48.8917 6.2276 47.1167 6.2276Z" fill="#C8F0EF"/>
<path d="M61.2433 14.6075C60.479 15.4191 59.4189 15.825 58.0383 15.825C57.4713 15.825 57.0029 15.8011 56.6331 15.7772L57.2248 9.30735C57.8905 9.02088 58.6054 8.87764 59.3204 8.87764C60.2325 8.87764 60.9474 9.16413 61.4898 9.761C62.0569 10.4056 62.2787 11.2651 62.1802 12.3155C62.1062 13.2466 61.7856 14.0106 61.2433 14.6075ZM60.1092 6.22762C59.2217 6.22762 58.3342 6.37086 57.4713 6.65734L57.8658 2.38389C57.8905 2.16902 57.8658 1.95416 57.7918 1.76316C57.5946 1.23793 57.0768 0.879822 56.4359 0.879822C55.8935 0.879822 55.3758 1.14244 55.0552 1.5483C54.8581 1.78704 54.7348 2.07352 54.7101 2.38389L53.4035 16.5412C53.3049 17.4723 53.7486 18.0692 54.6855 18.2602C55.4004 18.4034 56.3866 18.4512 57.5946 18.4512C60.1832 18.4512 62.2048 17.7588 63.6101 16.3741C64.6701 15.3475 65.2864 13.9867 65.4344 12.3633C65.607 10.525 65.2125 9.04476 64.251 7.94655C63.2402 6.80059 61.8596 6.22762 60.1092 6.22762Z" fill="#C8F0EF"/>
<path d="M69.7981 11.023C69.9461 10.4501 70.2173 9.94865 70.6118 9.54277C71.1788 8.9937 71.9184 8.73108 72.8798 8.73108C73.7427 8.73108 74.3837 8.96983 74.8275 9.49509C75.1726 9.92476 75.3452 10.4262 75.3452 11.023H69.7981ZM73.0771 6.2243C71.2034 6.2243 69.6256 6.79728 68.4175 7.89549C67.1849 9.01758 66.4699 10.4501 66.3221 12.1689C66.1495 13.9834 66.5932 15.4875 67.604 16.6096C68.6641 17.8032 70.2419 18.424 72.2881 18.424C73.6194 18.424 74.8521 18.1852 76.0108 17.7317C76.9476 17.3497 77.4653 16.8483 77.5147 16.2514C77.5393 15.9172 77.4653 15.6068 77.2435 15.3442C76.9723 15.01 76.5778 14.8668 76.0354 14.9861C75.9122 15.01 75.789 15.0577 75.6903 15.1055C75.6164 15.1532 75.5177 15.201 75.3699 15.2487C75.2219 15.3203 75.0986 15.3681 74.9754 15.4159C74.2358 15.7262 73.4715 15.8933 72.6826 15.8933C71.5732 15.8933 70.7596 15.5591 70.1927 14.8668C69.8228 14.437 69.6256 13.8879 69.5763 13.2433H76.6518C77.1449 13.2433 77.564 13.0761 77.8845 12.7658C78.205 12.4555 78.3776 12.0496 78.4268 11.5959C78.5748 10.0919 78.1803 8.82658 77.2682 7.82387C76.282 6.7734 74.8521 6.2243 73.0771 6.2243Z" fill="#C8F0EF"/>
<path d="M83.8256 2.35972C83.8502 2.04935 83.7764 1.76286 83.6284 1.52412C83.3818 1.11826 82.9134 0.855652 82.3711 0.855652C81.7054 0.855652 81.1137 1.23764 80.8179 1.78674C80.7193 1.97773 80.67 2.16873 80.6453 2.38359L79.3141 16.9467C79.2894 17.1616 79.3141 17.3526 79.388 17.5436C79.5852 18.0927 80.1029 18.4747 80.7686 18.4747C81.4096 18.4747 82.0012 18.1166 82.2971 17.5914C82.3957 17.4004 82.4697 17.1855 82.4943 16.9706L83.8256 2.35972Z" fill="#C8F0EF"/>
</svg>
