<svg width="32" height="23" viewBox="0 0 32 23" fill="none" xmlns="http://www.w3.org/2000/svg">
<path fill-rule="evenodd" clip-rule="evenodd" d="M15.7422 22.5121C7.04805 22.5121 0 17.4866 0 11.2873C0 5.08802 7.04805 0.0625 15.7422 0.0625C20.7754 0.0625 25.2569 1.74676 28.1386 4.36799C27.7388 4.50195 27.4619 4.79032 27.4619 5.12446C27.4619 5.58638 26.9337 5.96084 26.2822 5.96084H25.3915C24.7194 5.96084 24.1746 6.34711 24.1746 6.82356C24.1746 7.30003 24.7194 7.68627 25.3915 7.68627H30.6569C30.9021 8.20272 31.0959 8.73602 31.2342 9.28306C31.1101 9.31518 30.976 9.3327 30.8362 9.3327H30.7369C30.0759 9.3327 29.54 9.71261 29.54 10.1813V10.2343C29.54 10.6736 29.0376 11.0298 28.4179 11.0298C27.7982 11.0298 27.2958 10.6736 27.2958 10.2343V10.1813C27.2958 9.71261 26.76 9.3327 26.0989 9.3327C25.4379 9.3327 24.9021 9.71261 24.9021 10.1813V10.2343C24.9021 10.6736 24.3997 11.0298 23.78 11.0298C23.1603 11.0298 22.6579 11.386 22.6579 11.8253V11.8783C22.6579 12.347 23.1955 12.7269 23.8565 12.7269C24.5194 12.7269 25.0585 13.1079 25.0585 13.5779V13.693C25.0585 14.131 25.5594 14.486 26.1772 14.486C26.795 14.486 27.2958 14.8411 27.2958 15.2791V16.9696C27.2958 17.4383 27.8317 17.8182 28.4927 17.8182C28.5112 17.8182 28.5296 17.8179 28.548 17.8173C25.6918 20.6599 21.0204 22.5121 15.7422 22.5121ZM22.8211 3.605C22.8211 3.13637 22.2853 2.75646 21.6243 2.75646H19.6379C18.9171 2.75646 18.3328 3.17071 18.3328 3.68171V4.98158C18.3328 5.42094 18.8352 5.7771 19.4549 5.7771H19.6436C20.1591 5.7771 20.577 5.48081 20.577 5.11532C20.577 4.74984 20.9949 4.45357 21.5104 4.45357H21.6991C22.3188 4.45357 22.8211 4.09738 22.8211 3.65805V3.605ZM6.42214 5.04912C6.42214 4.62882 6.90274 4.28808 7.49557 4.28808H14.9929C15.7136 4.28808 16.2979 4.70235 16.2979 5.21332L16.298 6.74564C16.298 7.13055 16.7381 7.44259 17.281 7.44259C17.8239 7.44259 18.264 7.75463 18.264 8.13954V8.81483C18.264 9.21408 17.8075 9.53776 17.2443 9.53776C16.6812 9.53776 16.2246 9.86144 16.2246 10.2607V10.2838C16.2246 10.6958 15.7535 11.0298 15.1723 11.0298H15.1026C14.4828 11.0298 13.9805 11.386 13.9805 11.8253V11.8783C13.9805 12.347 13.4446 12.7269 12.7836 12.7269H12.634C11.973 12.7269 11.4371 12.347 11.4371 11.8783C11.4371 11.4097 10.9012 11.0298 10.2402 11.0298C9.57919 11.0298 9.04331 10.6499 9.04331 10.1813V9.33529C9.04331 9.33386 9.04492 9.3327 9.04695 9.3327C9.04894 9.3327 9.05059 9.33154 9.05059 9.33014V8.48468C9.05059 8.01634 8.51505 7.63668 7.85445 7.63668H5.99276C5.28131 7.63668 4.7046 7.2278 4.7046 6.72343V6.41899C4.7046 6.08275 5.08909 5.81017 5.56335 5.81017C6.03765 5.81017 6.42214 5.5376 6.42214 5.20133V5.04912ZM15.1332 12.3551C14.4722 12.3551 13.9363 12.735 13.9363 13.2037V13.3097C13.9363 13.7198 14.4052 14.0522 14.9836 14.0522C15.562 14.0522 16.0309 14.3846 16.0309 14.7947V17.4279C16.0309 17.4381 16.0426 17.4464 16.0571 17.4464C16.0715 17.4464 16.0832 17.4547 16.0832 17.465V19.125C16.0832 19.1352 16.0715 19.1435 16.0571 19.1435C16.0426 19.1435 16.0309 19.1518 16.0309 19.1621V19.9921C16.0309 20.4607 16.5667 20.8406 17.2278 20.8406H17.2708C17.9081 20.8406 18.4247 20.4743 18.4247 20.0226V19.2117C18.4247 19.2077 18.4292 19.2045 18.4347 19.2045C18.4403 19.2045 18.4448 19.2013 18.4448 19.1974V18.2348C18.4448 17.7994 18.9427 17.4464 19.5568 17.4464C20.1709 17.4464 20.6688 17.0935 20.6688 16.6581V16.5979C20.6688 16.1292 21.2047 15.7493 21.8657 15.7493C22.5267 15.7493 23.0626 15.3694 23.0626 14.9008C23.0626 14.4321 22.5267 14.0522 21.8657 14.0522C21.2047 14.0522 20.6688 13.6723 20.6688 13.2037C20.6688 12.735 20.1329 12.3551 19.4719 12.3551H15.1332Z" fill="black"/>
</svg>
